<?xml version="1.0" encoding="UTF-8"?>
<!DOCTYPE svg PUBLIC "-//W3C//DTD SVG 1.1//EN" "http://www.w3.org/Graphics/SVG/1.1/DTD/svg11.dtd">
<!-- Creator: CorelDRAW -->
<svg xmlns="http://www.w3.org/2000/svg" xml:space="preserve" width="286.771mm" height="204.853mm" style="shape-rendering:geometricPrecision; text-rendering:geometricPrecision; image-rendering:optimizeQuality; fill-rule:evenodd; clip-rule:evenodd"
viewBox="0 0 286.771 204.853">
 <defs>
  <style type="text/css">
   <![CDATA[
    .fil1 {fill:black}
    .fil0 {fill:white}
    .fil2 {fill:white;fill-rule:nonzero}
   ]]>
  </style>
 </defs>
 <g id="Layer_x0020_1">
  <metadata id="CorelCorpID_0Corel-Layer"/>
  <path class="fil0" d="M5.7448 181.399l-0.4092 0.0129c0.2288,10.9103 9.1285,19.6296 20.042,19.6296l236.425 0c10.7428,-0.2256 19.3911,-8.8868 19.6199,-19.6296l0.0129 -157.549c0,-10.9007 -8.7321,-19.8133 -19.6328,-20.042l-236.425 -0.0097c-11.0714,0 -20.042,8.9899 -20.042,20.0517l0 157.536 0.4092 0z"/>
  <path class="fil1" d="M15.9656 181.399l-0.3995 0c-0.0097,0.1386 -0.0097,0.2739 -0.0097,0.4092 0,5.1942 4.0342,9.4121 9.0028,9.4121 0.2739,0 0.5445,-0.0097 0.8184,-0.0323l0 0.0323 236.415 0 0 -0.0097c0.1354,0.0097 0.2707,0.0097 0.4093,0.0097 4.9653,0 9.0027,-4.2179 9.0027,-9.4121 0,-0.1353 0,-0.2706 -0.0128,-0.4092l0.4221 0 0 -157.536 -0.4447 0c0.0226,-0.2739 0.0354,-0.5478 0.0354,-0.8185 0,-5.1941 -4.0374,-9.412 -9.0027,-9.412 -0.1386,0 -0.2739,0.0097 -0.4093,0.0097l0 -0.0097 -236.415 0 0 0.0451c-0.2739,-0.0225 -0.5445,-0.0451 -0.8184,-0.0451 -4.9686,0 -9.0028,4.2179 -9.0028,9.412 0,0.2707 0.0097,0.5446 0.0322,0.8185l-0.0322 0 0 157.536 0.4092 0z"/>
  <path class="fil2" d="M148.526 51.1824l23.2966 0 0 72.1974 15.5393 0 0 16.963 -15.5393 0 0 20.7191 -19.2706 0 0 -20.7191 -57.2473 0 0 -20.4244 0.2946 -0.5646 0.5646 -0.2946c1.0065,-1.7184 2.0621,-3.0685 3.1668,-4.0259l0.2945 -0.8592 0.8592 -0.5892c0.2455,-0.5646 0.5401,-1.1047 0.9083,-1.5711 0.3437,-0.491 0.7119,-0.9083 1.1047,-1.3011l0.5646 -0.8592 0.5892 -0.5646 0.2946 -0.5892c0.761,-0.761 1.3256,-1.522 1.7184,-2.3075l0.5646 -0.5647 2.013 -2.5776 0.5892 -0.8837 0.5646 -0.5646 0.5891 -0.8592 0.2701 -0.5892 1.1538 -1.1292c0.6382,-1.0065 1.2519,-1.9148 1.8656,-2.6758 0.6383,-0.761 1.252,-1.3993 1.8903,-1.9394l1.1292 -2.0129 1.4484 -1.4239 0.5646 -1.1537 0.5892 -0.2946 0.2946 -0.8592 0.5646 -0.2946 0.2946 -0.5646 2.8721 -3.756 1.1538 -1.7184 1.1538 -1.1538c0.6628,-1.1046 1.4238,-2.062 2.283,-2.8721l0.2946 -0.8592c1.0065,-0.9574 1.7675,-1.9148 2.3076,-2.8722l0.5646 -0.8592 0.5892 -0.2946c0.761,-1.3011 1.522,-2.2585 2.3075,-2.8722l0.8592 -1.4484 1.1538 -1.4238 0.8592 -0.8837c0.5646,-1.1047 1.252,-1.9639 2.013,-2.5776l0.5646 -0.8592 0.5892 -1.1538 2.5776 -2.8722 0.2946 -0.8592 0.8592 -0.5892 0.2945 -0.8592 1.1538 -1.1537 0.2701 -0.5647 0.5891 -0.5891c0.5156,-0.8101 1.0311,-1.522 1.5466,-2.1603 0.491,-0.6137 0.9328,-1.1292 1.3256,-1.5711zm2.8722 24.1558c-0.761,1.5957 -1.7184,2.8231 -2.8722,3.7559l-1.1538 2.013c-0.7119,0.7119 -1.1783,1.2765 -1.4238,1.7184l-1.4484 1.4238 -0.8592 1.743 -1.4483 1.4238 -3.4368 4.9097 -0.5892 0.2701c-1.0065,1.7429 -2.0621,3.0685 -3.1668,4.0259l-0.27 0.5892 -2.3076 3.1668 -0.5646 0.5646 -3.4613 4.6151 -3.1668 4.026 -1.1538 1.7184 -0.8592 0.8592 -0.5646 0.8592 -0.8837 1.1538 -0.5647 0.8592 -0.5646 0.5891 -2.8967 3.4368 -0.27 0.5892 -2.8968 3.7314 38.2713 0 0 -46.1023c0,-1.3256 -0.0982,-2.4548 -0.2946,-3.3631l-1.1538 1.4238z"/>
 </g>
</svg>
